<?xml version="1.0" encoding="iso-8859-1"?>
<!-- Generator: Adobe Illustrator 21.0.0, SVG Export Plug-In . SVG Version: 6.00 Build 0)  -->
<svg xmlns="http://www.w3.org/2000/svg" xmlns:xlink="http://www.w3.org/1999/xlink" version="1.1" id="Capa_1" x="0px" y="0px" viewBox="0 0 512 512" style="enable-background:new 0 0 512 512;" xml:space="preserve" width="512" height="512">
<path style="fill-rule:evenodd;clip-rule:evenodd;fill:#FED2A4;" d="M13.338,90.368h408.323v168.753  c-18.462-8.267-36.559-20.311-49.513-37.854c-39.435,53.401-126.514,55.864-126.514,55.864  c2.479,37.179,10.626,69.203,21.669,96.477H13.338V90.368z"/>
<polygon style="fill-rule:evenodd;clip-rule:evenodd;fill:#FFBD86;" points="359.613,10 75.385,10 13.338,90.368 421.661,90.368 "/>
<polygon style="fill-rule:evenodd;clip-rule:evenodd;fill:#FF9F00;" points="186.476,10 248.524,10 264.035,90.368 170.964,90.368   "/>
<rect x="170.964" y="90.368" style="fill-rule:evenodd;clip-rule:evenodd;fill:#FF9F00;" width="93.071" height="42.425"/>
<path style="fill-rule:evenodd;clip-rule:evenodd;fill:#87E8D4;" d="M372.149,502c0,0-115.832-64.67-126.514-224.869  c0,0,87.078-2.464,126.514-55.864c39.436,53.4,126.514,55.864,126.514,55.864C487.981,437.33,372.149,502,372.149,502z"/>
<g>
	<path style="fill-rule:evenodd;clip-rule:evenodd;" d="M506.062,270.409c-1.825-2.011-4.393-3.192-7.107-3.273   c-0.524-0.017-33.84-1.245-67.293-14.675V90.368c0-1.72-0.474-3.4-1.297-4.904c-0.23-0.421-0.495-0.827-0.788-1.207L367.529,3.889   C365.635,1.436,362.712,0,359.613,0h-111.09h-62.048H75.385c-3.099,0-6.022,1.436-7.916,3.889c0,0-61.995,80.302-62.047,80.368   c-1.339,1.733-2.084,3.923-2.084,6.111v243.24c0,5.522,4.477,10,10,10c5.523,0,10-4.478,10-10v-233.24h137.626v32.425   c0,5.522,4.477,10,10,10h93.071c5.522,0,10-4.478,10-10v-32.425h137.626v142.384c-5.603-3.275-11.01-6.983-16.049-11.189   c-0.019-0.017-0.038-0.033-0.058-0.049c-5.813-4.649-10.945-10.205-15.362-16.188c-1.885-2.553-4.87-4.06-8.044-4.06   c-3.174,0-6.159,1.507-8.044,4.06c-0.563,0.762-1.137,1.513-1.722,2.253c-33.912,42.913-103.895,48.793-115.415,49.475   c-0.993,0.059-1.552,0.079-1.615,0.081c-2.717,0.077-5.287,1.257-7.116,3.268c-1.829,2.011-2.76,4.681-2.579,7.393   c0.685,10.276,1.824,20.523,3.438,30.695c0.009,0.056,0.017,0.11,0.026,0.166c3.007,18.978,7.59,37.35,13.733,54.95H53.338   c-5.523,0-10,4.478-10,10c0,5.523,4.477,10,10,10h207.421c13.308,30.827,29.768,54.887,44.47,72.451   c31.119,37.179,60.797,53.976,62.045,54.673c1.515,0.846,3.195,1.269,4.875,1.269c1.68,0,3.36-0.423,4.875-1.269   c1.248-0.697,30.926-17.494,62.045-54.673c28.594-34.162,63.874-92.82,69.571-178.263   C508.82,275.087,507.887,272.42,506.062,270.409z M240.269,20l11.652,60.368h-68.843L194.73,20H240.269z M80.298,20h94.063   l-11.652,60.368H33.692L80.298,20z M254.035,122.793h-73.071v-22.425h73.071V122.793z M272.29,80.368L260.638,20H354.7   l46.607,60.368H272.29z M424.298,442.543c-21.677,26.069-42.883,41.551-52.161,47.679c-9.171-6.037-29.985-21.21-51.571-47   c-23.933-28.594-52.888-75.64-62.456-142.801c-0.515-3.613-0.965-7.235-1.357-10.864c-0.114-1.057-0.224-2.114-0.327-3.173   c22.022-2.18,73.519-10.607,108.882-42.758c2.364-2.164,4.655-4.404,6.841-6.749c2.979,3.188,6.155,6.201,9.467,9.041   c0.944,0.809,1.899,1.604,2.867,2.385c35.014,28.291,82.48,36.012,103.39,38.081C480.64,360.673,449.627,412.08,424.298,442.543z"/>
	<path style="fill-rule:evenodd;clip-rule:evenodd;" d="M355.841,379.149l-25.544-25.545c-3.906-3.904-10.236-3.904-14.143,0   c-3.905,3.905-3.905,10.237,0,14.143l32.615,32.615c1.953,1.952,4.512,2.929,7.071,2.929c2.56,0,5.118-0.976,7.071-2.929   l65.23-65.229c3.905-3.905,3.905-10.237,0-14.143c-3.906-3.904-10.236-3.904-14.143,0L355.841,379.149z"/>
	<path style="fill-rule:evenodd;clip-rule:evenodd;" d="M13.338,363.607c-5.508,0-10,4.492-10,10c0,5.508,4.492,10,10,10   c5.508,0,10-4.492,10-10C23.338,368.1,18.846,363.607,13.338,363.607z"/>
</g>















</svg>
