<?xml version="1.0" encoding="iso-8859-1"?>
<!-- Generator: Adobe Illustrator 21.0.0, SVG Export Plug-In . SVG Version: 6.00 Build 0)  -->
<svg xmlns="http://www.w3.org/2000/svg" xmlns:xlink="http://www.w3.org/1999/xlink" version="1.1" id="Capa_1" x="0px" y="0px" viewBox="0 0 512 512" style="enable-background:new 0 0 512 512;" xml:space="preserve" width="512" height="512">
<path style="fill-rule:evenodd;clip-rule:evenodd;fill:#FED2A4;" d="M116.485,114.264h113.533c23.757,0,43.193,19.439,43.193,43.192  v113.465c0,23.753-19.436,43.191-43.193,43.191V502H116.485V314.113c-23.756,0-43.192-19.436-43.192-43.191V157.456  C73.293,133.701,92.729,114.264,116.485,114.264z"/>
<path style="fill-rule:evenodd;clip-rule:evenodd;fill:#FED2A4;" d="M173.253,114.266c24.814,0,45.053-23.419,45.053-52.133  S198.067,10,173.253,10c-24.816,0-45.055,23.419-45.055,52.133S148.437,114.266,173.253,114.266z"/>
<rect x="116.485" y="190.061" style="fill-rule:evenodd;clip-rule:evenodd;fill:#FFD05B;" width="56.767" height="124.052"/>
<path style="fill-rule:evenodd;clip-rule:evenodd;fill:#FFD05B;" d="M15.447,190.061v124.052h101.038  c-23.756,0-43.192-19.436-43.192-43.191v-80.861H15.447z"/>
<path style="fill-rule:evenodd;clip-rule:evenodd;fill:#FFD05B;" d="M230.019,314.113V502h266.534V253.572H273.212v17.35  C273.212,294.675,253.775,314.113,230.019,314.113z"/>
<rect x="316.041" y="253.572" style="fill-rule:evenodd;clip-rule:evenodd;fill:#FF9F00;" width="94.489" height="60.541"/>
<path d="M116.485,324.113c-5.523,0-10-4.477-10-10V190.061c0-5.523,4.477-10,10-10c5.523,0,10,4.477,10,10v124.052  C126.485,319.636,122.008,324.113,116.485,324.113z"/>
<g>
	<path style="fill-rule:evenodd;clip-rule:evenodd;" d="M496.553,243.572H410.53h-94.489h-32.829v-86.116   c0-29.33-23.862-53.192-53.193-53.192h-16.35c9.077-11.083,14.637-25.885,14.637-42.131C228.306,27.873,203.609,0,173.253,0   c-30.357,0-55.055,27.873-55.055,62.133c0,16.246,5.56,31.049,14.637,42.131h-16.35c-29.331,0-53.192,23.862-53.192,53.192v22.605   H15.447c-5.523,0-10,4.477-10,10v124.052c0,5.523,4.477,10,10,10h91.038V502c0,5.523,4.477,10,10,10h113.533h266.534   c5.522,0,10-4.477,10-10v-84.214c0-5.523-4.478-10-10-10c-5.522,0-10,4.477-10,10V492H240.019V323.17   c1.535-0.293,3.048-0.653,4.534-1.075c22.288-6.339,38.66-26.88,38.66-51.173v-7.35h22.829v50.541c0,5.523,4.478,10,10,10h94.489   c5.523,0,10-4.477,10-10v-50.541h66.022v74.214c0,5.523,4.478,10,10,10c5.522,0,10-4.477,10-10v-84.214   C506.553,248.049,502.075,243.572,496.553,243.572z M138.198,62.133c0-23.232,15.726-42.133,35.055-42.133   c19.328,0,35.053,18.901,35.053,42.133c0,23.213-15.699,42.1-35.005,42.131h-0.096C153.898,104.232,138.198,85.346,138.198,62.133z    M25.447,304.113V200.061h37.846v70.861c0,5.283,0.787,10.565,2.339,15.616c0.448,1.456,0.96,2.894,1.535,4.305   c1.869,4.59,4.378,8.907,7.429,12.812c0.119,0.152,0.231,0.308,0.352,0.459H25.447z M240.019,302.571v-112.51   c0-5.523-4.477-10-10-10c-5.523,0-10,4.477-10,10v124.052V492h-36.767V346.484c0-5.523-4.477-10-10-10c-5.523,0-10,4.477-10,10V492   h-36.767V324.113h46.767c5.523,0,10-4.477,10-10V190.061c0-5.523-4.477-10-10-10h-56.767c-5.523,0-10,4.477-10,10v112.51   c-13.43-4.252-23.192-16.831-23.192-31.649v-80.861v-32.605c0-18.302,14.89-33.192,33.192-33.192h56.716   c0.017,0,0.034,0.001,0.051,0.001c0.017,0,0.034-0.001,0.051-0.001h56.714c18.303,0,33.193,14.89,33.193,33.192v96.116v17.35   C263.212,285.74,253.449,298.318,240.019,302.571z M126.485,304.113V200.061h36.767v104.052H126.485z M400.53,304.113h-74.489   v-40.541h74.489V304.113z"/>
	<path style="fill-rule:evenodd;clip-rule:evenodd;" d="M357.212,445.803c-5.522,0-10,4.477-10,10c0,5.523,4.478,10,10,10h27.672   c5.522,0,10-4.477,10-10c0-5.523-4.478-10-10-10H357.212z"/>
	<path style="fill-rule:evenodd;clip-rule:evenodd;" d="M422.683,445.803c-5.522,0-10,4.477-10,10c0,5.523,4.478,10,10,10h27.672   c5.522,0,10-4.477,10-10c0-5.523-4.478-10-10-10H422.683z"/>
	<path style="fill-rule:evenodd;clip-rule:evenodd;" d="M496.553,367.786c-5.508,0-10,4.492-10,10s4.492,10,10,10   c5.507,0,10-4.492,10-10S502.06,367.786,496.553,367.786z"/>
</g>















</svg>
